<?xml version="1.0" encoding="utf-8"?>
<!-- Generator: Adobe Illustrator 17.1.0, SVG Export Plug-In . SVG Version: 6.00 Build 0)  -->
<!DOCTYPE svg PUBLIC "-//W3C//DTD SVG 1.1//EN" "http://www.w3.org/Graphics/SVG/1.1/DTD/svg11.dtd">
<svg version="1.1" id="Layer_1" xmlns="http://www.w3.org/2000/svg" xmlns:xlink="http://www.w3.org/1999/xlink" x="0px" y="0px"
	 viewBox="0 0 20 19" enable-background="new 0 0 20 19" xml:space="preserve" width='20' height='20'>
<g id="Forma_1">
	<g>
		<path fill-rule="evenodd" clip-rule="evenodd" fill="#0070E0" d="M10.7,0C7.1,0,3.9,2.2,2.4,5.4l-1-2.2L0,3.9l2.2,4.6l4.5-2.2
			L6,4.9L3.7,6.1c1.3-2.8,4-4.6,7-4.6c4.3,0,7.8,3.6,7.8,8c0,4.4-3.5,8-7.8,8c-2.5,0-4.9-1.3-6.4-3.4L3.2,15c1.7,2.5,4.6,4,7.6,4
			c5.1,0,9.2-4.3,9.2-9.5C20,4.3,15.8,0,10.7,0z"/>
	</g>
</g>
</svg>
