<?xml version="1.0" encoding="utf-8"?>
<!-- Generator: Adobe Illustrator 17.1.0, SVG Export Plug-In . SVG Version: 6.00 Build 0)  -->
<!DOCTYPE svg PUBLIC "-//W3C//DTD SVG 1.1//EN" "http://www.w3.org/Graphics/SVG/1.1/DTD/svg11.dtd">
<svg version="1.1" id="Layer_1" xmlns="http://www.w3.org/2000/svg" xmlns:xlink="http://www.w3.org/1999/xlink" x="0px" y="0px"
	 viewBox="0 0 9 15" enable-background="new 0 0 9 15" xml:space="preserve" width='9' height='15'>
<g id="Forma_1_копия">
	<g>
		<path fill-rule="evenodd" clip-rule="evenodd" fill="#FFFFFF" d="M8.8,9.1C9.1,8.8,9.1,8.4,8.8,8c-0.2-0.4-0.6-0.5-1-0.4
			C7.6,7.7,7.4,7.8,7.3,7.9C5.6,9,3.3,9,1.6,7.8C1.6,7.8,1.5,7.7,1.4,7.7C0.9,7.5,0.5,7.6,0.2,7.9c-0.3,0.4-0.3,0.9,0.1,1.3
			c0.1,0.1,0.2,0.2,0.3,0.3c0.9,0.7,1.9,1,3.1,1.1c-0.1,0.1-0.1,0.1-0.2,0.2c-0.8,0.9-1.7,1.7-2.6,2.6c-0.2,0.2-0.3,0.4-0.3,0.6
			c0,0.4,0.2,0.8,0.6,0.9c0.3,0.2,0.7,0.1,1-0.2c0.7-0.7,1.3-1.3,2-2c0.2-0.2,0.3-0.2,0.4,0c0.6,0.7,1.3,1.3,1.9,2
			C6.8,14.9,7,15,7.3,15c0.4,0,0.8-0.2,1-0.6c0.2-0.3,0.1-0.7-0.2-1c-0.9-0.9-1.7-1.7-2.6-2.6c-0.1-0.1-0.1-0.1-0.2-0.2
			c0.6-0.1,1.3-0.2,1.9-0.4C7.7,9.9,8.3,9.6,8.8,9.1z M4.5,7.6c2.1,0,3.8-1.7,3.8-3.8C8.3,1.7,6.6,0,4.5,0C2.4,0,0.7,1.7,0.7,3.8
			C0.7,5.9,2.4,7.6,4.5,7.6z M4.5,1.9c1,0,1.8,0.8,1.8,1.9c0,1-0.8,1.9-1.8,1.9c-1,0-1.9-0.8-1.9-1.8C2.6,2.8,3.5,1.9,4.5,1.9z"/>
	</g>
</g>
</svg>
